<mxfile host="Electron" agent="Mozilla/5.0 (Windows NT 10.0; Win64; x64) AppleWebKit/537.36 (KHTML, like Gecko) draw.io/26.0.16 Chrome/132.0.6834.196 Electron/34.2.0 Safari/537.36" version="26.0.16">
  <diagram id="C5RBs43oDa-KdzZeNtuy" name="Page-1">
    <mxGraphModel dx="2876" dy="1206" grid="1" gridSize="10" guides="1" tooltips="1" connect="1" arrows="1" fold="1" page="1" pageScale="1" pageWidth="827" pageHeight="1169" math="0" shadow="0">
      <root>
        <mxCell id="WIyWlLk6GJQsqaUBKTNV-0" />
        <mxCell id="WIyWlLk6GJQsqaUBKTNV-1" parent="WIyWlLk6GJQsqaUBKTNV-0" />
        <mxCell id="zkfFHV4jXpPFQw0GAbJ--0" value="SimulationManager" style="swimlane;fontStyle=2;align=center;verticalAlign=top;childLayout=stackLayout;horizontal=1;startSize=26;horizontalStack=0;resizeParent=1;resizeLast=0;collapsible=1;marginBottom=0;rounded=0;shadow=0;strokeWidth=1;" parent="WIyWlLk6GJQsqaUBKTNV-1" vertex="1">
          <mxGeometry x="90" y="100" width="300" height="266" as="geometry">
            <mxRectangle x="230" y="140" width="160" height="26" as="alternateBounds" />
          </mxGeometry>
        </mxCell>
        <mxCell id="zkfFHV4jXpPFQw0GAbJ--1" value="- scheduler: Schedule&#xa;- frame: SimulationFrame&#xa;- tasks: List&lt;Task&gt;&#xa;-selectionPolicy: SelectionPolicy&#xa;" style="text;align=left;verticalAlign=top;spacingLeft=4;spacingRight=4;overflow=hidden;rotatable=0;points=[[0,0.5],[1,0.5]];portConstraint=eastwest;" parent="zkfFHV4jXpPFQw0GAbJ--0" vertex="1">
          <mxGeometry y="26" width="300" height="94" as="geometry" />
        </mxCell>
        <mxCell id="zkfFHV4jXpPFQw0GAbJ--4" value="" style="line;html=1;strokeWidth=1;align=left;verticalAlign=middle;spacingTop=-1;spacingLeft=3;spacingRight=3;rotatable=0;labelPosition=right;points=[];portConstraint=eastwest;" parent="zkfFHV4jXpPFQw0GAbJ--0" vertex="1">
          <mxGeometry y="120" width="300" height="10" as="geometry" />
        </mxCell>
        <mxCell id="zkfFHV4jXpPFQw0GAbJ--5" value="+ run(): void&#xa;- updateTable(int, String, String): void&#xa;+ main(String[]): void&#xa;- generateNRandomTasks(): void&#xa;- allServersIdle(): boolean" style="text;align=left;verticalAlign=top;spacingLeft=4;spacingRight=4;overflow=hidden;rotatable=0;points=[[0,0.5],[1,0.5]];portConstraint=eastwest;" parent="zkfFHV4jXpPFQw0GAbJ--0" vertex="1">
          <mxGeometry y="130" width="300" height="130" as="geometry" />
        </mxCell>
        <mxCell id="Vkex9OeiXIQ4qIdjyiqi-1" value="TimeStrategy" style="swimlane;fontStyle=2;align=center;verticalAlign=top;childLayout=stackLayout;horizontal=1;startSize=26;horizontalStack=0;resizeParent=1;resizeLast=0;collapsible=1;marginBottom=0;rounded=0;shadow=0;strokeWidth=1;" parent="WIyWlLk6GJQsqaUBKTNV-1" vertex="1">
          <mxGeometry x="560" y="840" width="280" height="120" as="geometry">
            <mxRectangle x="230" y="140" width="160" height="26" as="alternateBounds" />
          </mxGeometry>
        </mxCell>
        <mxCell id="Vkex9OeiXIQ4qIdjyiqi-2" value="&#xa;" style="text;align=left;verticalAlign=top;spacingLeft=4;spacingRight=4;overflow=hidden;rotatable=0;points=[[0,0.5],[1,0.5]];portConstraint=eastwest;" parent="Vkex9OeiXIQ4qIdjyiqi-1" vertex="1">
          <mxGeometry y="26" width="280" height="44" as="geometry" />
        </mxCell>
        <mxCell id="Vkex9OeiXIQ4qIdjyiqi-3" value="" style="line;html=1;strokeWidth=1;align=left;verticalAlign=middle;spacingTop=-1;spacingLeft=3;spacingRight=3;rotatable=0;labelPosition=right;points=[];portConstraint=eastwest;" parent="Vkex9OeiXIQ4qIdjyiqi-1" vertex="1">
          <mxGeometry y="70" width="280" height="10" as="geometry" />
        </mxCell>
        <mxCell id="Vkex9OeiXIQ4qIdjyiqi-4" value="+ addTask(servers: List&lt;Server&gt;, task: Task): void" style="text;align=left;verticalAlign=top;spacingLeft=4;spacingRight=4;overflow=hidden;rotatable=0;points=[[0,0.5],[1,0.5]];portConstraint=eastwest;" parent="Vkex9OeiXIQ4qIdjyiqi-1" vertex="1">
          <mxGeometry y="80" width="280" height="40" as="geometry" />
        </mxCell>
        <mxCell id="Vkex9OeiXIQ4qIdjyiqi-5" value="Strategy" style="swimlane;fontStyle=2;align=center;verticalAlign=top;childLayout=stackLayout;horizontal=1;startSize=26;horizontalStack=0;resizeParent=1;resizeLast=0;collapsible=1;marginBottom=0;rounded=0;shadow=0;strokeWidth=1;" parent="WIyWlLk6GJQsqaUBKTNV-1" vertex="1">
          <mxGeometry x="298" y="600" width="230" height="180" as="geometry">
            <mxRectangle x="230" y="140" width="160" height="26" as="alternateBounds" />
          </mxGeometry>
        </mxCell>
        <mxCell id="Vkex9OeiXIQ4qIdjyiqi-6" value="public enum SelectionPolicy&#xa;{shortest_queue,shortest_time}" style="text;align=left;verticalAlign=top;spacingLeft=4;spacingRight=4;overflow=hidden;rotatable=0;points=[[0,0.5],[1,0.5]];portConstraint=eastwest;" parent="Vkex9OeiXIQ4qIdjyiqi-5" vertex="1">
          <mxGeometry y="26" width="230" height="94" as="geometry" />
        </mxCell>
        <mxCell id="Vkex9OeiXIQ4qIdjyiqi-7" value="" style="line;html=1;strokeWidth=1;align=left;verticalAlign=middle;spacingTop=-1;spacingLeft=3;spacingRight=3;rotatable=0;labelPosition=right;points=[];portConstraint=eastwest;" parent="Vkex9OeiXIQ4qIdjyiqi-5" vertex="1">
          <mxGeometry y="120" width="230" height="10" as="geometry" />
        </mxCell>
        <mxCell id="Vkex9OeiXIQ4qIdjyiqi-8" value="+ addTask(servers: List&lt;Server&gt;, task: Task): void" style="text;align=left;verticalAlign=top;spacingLeft=4;spacingRight=4;overflow=hidden;rotatable=0;points=[[0,0.5],[1,0.5]];portConstraint=eastwest;" parent="Vkex9OeiXIQ4qIdjyiqi-5" vertex="1">
          <mxGeometry y="130" width="230" height="50" as="geometry" />
        </mxCell>
        <mxCell id="Vkex9OeiXIQ4qIdjyiqi-9" value="Scheduler&#xa;&#xa;&#xa;&#xa;&#xa;" style="swimlane;fontStyle=2;align=center;verticalAlign=top;childLayout=stackLayout;horizontal=1;startSize=26;horizontalStack=0;resizeParent=1;resizeLast=0;collapsible=1;marginBottom=0;rounded=0;shadow=0;strokeWidth=1;" parent="WIyWlLk6GJQsqaUBKTNV-1" vertex="1">
          <mxGeometry x="520" y="290" width="300" height="266" as="geometry">
            <mxRectangle x="230" y="140" width="160" height="26" as="alternateBounds" />
          </mxGeometry>
        </mxCell>
        <mxCell id="Vkex9OeiXIQ4qIdjyiqi-10" value="- servers: List&lt;Server&gt;&#xa;- maxNoServers: int&#xa;- maxTasksPerServer: int&#xa;- strategy: Strategy" style="text;align=left;verticalAlign=top;spacingLeft=4;spacingRight=4;overflow=hidden;rotatable=0;points=[[0,0.5],[1,0.5]];portConstraint=eastwest;" parent="Vkex9OeiXIQ4qIdjyiqi-9" vertex="1">
          <mxGeometry y="26" width="300" height="94" as="geometry" />
        </mxCell>
        <mxCell id="Vkex9OeiXIQ4qIdjyiqi-11" value="" style="line;html=1;strokeWidth=1;align=left;verticalAlign=middle;spacingTop=-1;spacingLeft=3;spacingRight=3;rotatable=0;labelPosition=right;points=[];portConstraint=eastwest;" parent="Vkex9OeiXIQ4qIdjyiqi-9" vertex="1">
          <mxGeometry y="120" width="300" height="10" as="geometry" />
        </mxCell>
        <mxCell id="Vkex9OeiXIQ4qIdjyiqi-12" value="+ changeStrategy(selectionPolicy: SelectionPolicy): void&#xa;+ dispatchTask(task: Task): void" style="text;align=left;verticalAlign=top;spacingLeft=4;spacingRight=4;overflow=hidden;rotatable=0;points=[[0,0.5],[1,0.5]];portConstraint=eastwest;" parent="Vkex9OeiXIQ4qIdjyiqi-9" vertex="1">
          <mxGeometry y="130" width="300" height="130" as="geometry" />
        </mxCell>
        <mxCell id="Vkex9OeiXIQ4qIdjyiqi-15" value="ShortestQueueStrategy" style="swimlane;fontStyle=2;align=center;verticalAlign=top;childLayout=stackLayout;horizontal=1;startSize=26;horizontalStack=0;resizeParent=1;resizeLast=0;collapsible=1;marginBottom=0;rounded=0;shadow=0;strokeWidth=1;" parent="WIyWlLk6GJQsqaUBKTNV-1" vertex="1">
          <mxGeometry x="50" y="840" width="280" height="120" as="geometry">
            <mxRectangle x="230" y="140" width="160" height="26" as="alternateBounds" />
          </mxGeometry>
        </mxCell>
        <mxCell id="Vkex9OeiXIQ4qIdjyiqi-16" value="&#xa;" style="text;align=left;verticalAlign=top;spacingLeft=4;spacingRight=4;overflow=hidden;rotatable=0;points=[[0,0.5],[1,0.5]];portConstraint=eastwest;" parent="Vkex9OeiXIQ4qIdjyiqi-15" vertex="1">
          <mxGeometry y="26" width="280" height="44" as="geometry" />
        </mxCell>
        <mxCell id="Vkex9OeiXIQ4qIdjyiqi-17" value="" style="line;html=1;strokeWidth=1;align=left;verticalAlign=middle;spacingTop=-1;spacingLeft=3;spacingRight=3;rotatable=0;labelPosition=right;points=[];portConstraint=eastwest;" parent="Vkex9OeiXIQ4qIdjyiqi-15" vertex="1">
          <mxGeometry y="70" width="280" height="10" as="geometry" />
        </mxCell>
        <mxCell id="Vkex9OeiXIQ4qIdjyiqi-18" value="+ addTask(servers: List&lt;Server&gt;, task: Task): void" style="text;align=left;verticalAlign=top;spacingLeft=4;spacingRight=4;overflow=hidden;rotatable=0;points=[[0,0.5],[1,0.5]];portConstraint=eastwest;" parent="Vkex9OeiXIQ4qIdjyiqi-15" vertex="1">
          <mxGeometry y="80" width="280" height="40" as="geometry" />
        </mxCell>
        <mxCell id="Vkex9OeiXIQ4qIdjyiqi-19" value="Task" style="swimlane;fontStyle=2;align=center;verticalAlign=top;childLayout=stackLayout;horizontal=1;startSize=26;horizontalStack=0;resizeParent=1;resizeLast=0;collapsible=1;marginBottom=0;rounded=0;shadow=0;strokeWidth=1;" parent="WIyWlLk6GJQsqaUBKTNV-1" vertex="1">
          <mxGeometry x="740" y="40" width="310" height="210" as="geometry">
            <mxRectangle x="230" y="140" width="160" height="26" as="alternateBounds" />
          </mxGeometry>
        </mxCell>
        <mxCell id="Vkex9OeiXIQ4qIdjyiqi-20" value="- ID: int&#xa;- arrivalTime: int&#xa;- serviceTime: int" style="text;align=left;verticalAlign=top;spacingLeft=4;spacingRight=4;overflow=hidden;rotatable=0;points=[[0,0.5],[1,0.5]];portConstraint=eastwest;" parent="Vkex9OeiXIQ4qIdjyiqi-19" vertex="1">
          <mxGeometry y="26" width="310" height="94" as="geometry" />
        </mxCell>
        <mxCell id="Vkex9OeiXIQ4qIdjyiqi-21" value="" style="line;html=1;strokeWidth=1;align=left;verticalAlign=middle;spacingTop=-1;spacingLeft=3;spacingRight=3;rotatable=0;labelPosition=right;points=[];portConstraint=eastwest;" parent="Vkex9OeiXIQ4qIdjyiqi-19" vertex="1">
          <mxGeometry y="120" width="310" height="10" as="geometry" />
        </mxCell>
        <mxCell id="Vkex9OeiXIQ4qIdjyiqi-22" value="+  getServiceTime(): int&#xa;+  getArrivalTime(): int&#xa;+  getId(): int&#xa;" style="text;align=left;verticalAlign=top;spacingLeft=4;spacingRight=4;overflow=hidden;rotatable=0;points=[[0,0.5],[1,0.5]];portConstraint=eastwest;" parent="Vkex9OeiXIQ4qIdjyiqi-19" vertex="1">
          <mxGeometry y="130" width="310" height="80" as="geometry" />
        </mxCell>
        <mxCell id="Vkex9OeiXIQ4qIdjyiqi-23" value="Server&#xa;" style="swimlane;fontStyle=2;align=center;verticalAlign=top;childLayout=stackLayout;horizontal=1;startSize=26;horizontalStack=0;resizeParent=1;resizeLast=0;collapsible=1;marginBottom=0;rounded=0;shadow=0;strokeWidth=1;" parent="WIyWlLk6GJQsqaUBKTNV-1" vertex="1">
          <mxGeometry x="931" y="350" width="310" height="330" as="geometry">
            <mxRectangle x="230" y="140" width="160" height="26" as="alternateBounds" />
          </mxGeometry>
        </mxCell>
        <mxCell id="Vkex9OeiXIQ4qIdjyiqi-24" value="- tasks: BlockingQueue&lt;Task&gt;&#xa;- waitingPeriod: AtomicInteger&#xa;- nrOfTasks: AtomicInteger&#xa;- currentTask: Atomic&#xa;- totalWaitingTime: AtomicInteger&#xa;- totalTasksProcessed : AtomicInteger" style="text;align=left;verticalAlign=top;spacingLeft=4;spacingRight=4;overflow=hidden;rotatable=0;points=[[0,0.5],[1,0.5]];portConstraint=eastwest;" parent="Vkex9OeiXIQ4qIdjyiqi-23" vertex="1">
          <mxGeometry y="26" width="310" height="94" as="geometry" />
        </mxCell>
        <mxCell id="Vkex9OeiXIQ4qIdjyiqi-25" value="" style="line;html=1;strokeWidth=1;align=left;verticalAlign=middle;spacingTop=-1;spacingLeft=3;spacingRight=3;rotatable=0;labelPosition=right;points=[];portConstraint=eastwest;" parent="Vkex9OeiXIQ4qIdjyiqi-23" vertex="1">
          <mxGeometry y="120" width="310" height="10" as="geometry" />
        </mxCell>
        <mxCell id="Vkex9OeiXIQ4qIdjyiqi-26" value="+ getWaitingPeriod(): AtomicInteger&#xa;+ getNrOfTasks(): AtomicInteger&#xa;+ getTotalWaitingTime(): int&#xa;+ getAvgTime(): Double&#xa;+ getCurrentTask(): Task&#xa;+ run(): void&#xa;+ getId(): Integer&#xa;+ addTask(Task): void&#xa;+ getTasks(): BlockingQueue&lt;Task&gt;&#xa;+ getTotalTasksProcessed(): int" style="text;align=left;verticalAlign=top;spacingLeft=4;spacingRight=4;overflow=hidden;rotatable=0;points=[[0,0.5],[1,0.5]];portConstraint=eastwest;" parent="Vkex9OeiXIQ4qIdjyiqi-23" vertex="1">
          <mxGeometry y="130" width="310" height="200" as="geometry" />
        </mxCell>
        <mxCell id="pZB_Ydj8sKg8JAIhZmVp-0" value="Logger" style="swimlane;fontStyle=2;align=center;verticalAlign=top;childLayout=stackLayout;horizontal=1;startSize=26;horizontalStack=0;resizeParent=1;resizeLast=0;collapsible=1;marginBottom=0;rounded=0;shadow=0;strokeWidth=1;" parent="WIyWlLk6GJQsqaUBKTNV-1" vertex="1">
          <mxGeometry x="-310" y="240" width="310" height="210" as="geometry">
            <mxRectangle x="230" y="140" width="160" height="26" as="alternateBounds" />
          </mxGeometry>
        </mxCell>
        <mxCell id="pZB_Ydj8sKg8JAIhZmVp-1" value=" &#xa;" style="text;align=left;verticalAlign=top;spacingLeft=4;spacingRight=4;overflow=hidden;rotatable=0;points=[[0,0.5],[1,0.5]];portConstraint=eastwest;" parent="pZB_Ydj8sKg8JAIhZmVp-0" vertex="1">
          <mxGeometry y="26" width="310" height="64" as="geometry" />
        </mxCell>
        <mxCell id="pZB_Ydj8sKg8JAIhZmVp-2" value="" style="line;html=1;strokeWidth=1;align=left;verticalAlign=middle;spacingTop=-1;spacingLeft=3;spacingRight=3;rotatable=0;labelPosition=right;points=[];portConstraint=eastwest;" parent="pZB_Ydj8sKg8JAIhZmVp-0" vertex="1">
          <mxGeometry y="90" width="310" height="10" as="geometry" />
        </mxCell>
        <mxCell id="pZB_Ydj8sKg8JAIhZmVp-3" value="+ log(String: messge): void&#xa;+ clearLog(): void" style="text;align=left;verticalAlign=top;spacingLeft=4;spacingRight=4;overflow=hidden;rotatable=0;points=[[0,0.5],[1,0.5]];portConstraint=eastwest;" parent="pZB_Ydj8sKg8JAIhZmVp-0" vertex="1">
          <mxGeometry y="100" width="310" height="80" as="geometry" />
        </mxCell>
        <mxCell id="pZB_Ydj8sKg8JAIhZmVp-6" value="Controller" style="swimlane;fontStyle=2;align=center;verticalAlign=top;childLayout=stackLayout;horizontal=1;startSize=26;horizontalStack=0;resizeParent=1;resizeLast=0;collapsible=1;marginBottom=0;rounded=0;shadow=0;strokeWidth=1;" parent="WIyWlLk6GJQsqaUBKTNV-1" vertex="1">
          <mxGeometry x="-510" y="10" width="310" height="210" as="geometry">
            <mxRectangle x="230" y="140" width="160" height="26" as="alternateBounds" />
          </mxGeometry>
        </mxCell>
        <mxCell id="pZB_Ydj8sKg8JAIhZmVp-7" value="- gen: SimulationManager&#xa;- view_frame: View&#xa;" style="text;align=left;verticalAlign=top;spacingLeft=4;spacingRight=4;overflow=hidden;rotatable=0;points=[[0,0.5],[1,0.5]];portConstraint=eastwest;" parent="pZB_Ydj8sKg8JAIhZmVp-6" vertex="1">
          <mxGeometry y="26" width="310" height="94" as="geometry" />
        </mxCell>
        <mxCell id="pZB_Ydj8sKg8JAIhZmVp-8" value="" style="line;html=1;strokeWidth=1;align=left;verticalAlign=middle;spacingTop=-1;spacingLeft=3;spacingRight=3;rotatable=0;labelPosition=right;points=[];portConstraint=eastwest;" parent="pZB_Ydj8sKg8JAIhZmVp-6" vertex="1">
          <mxGeometry y="120" width="310" height="10" as="geometry" />
        </mxCell>
        <mxCell id="pZB_Ydj8sKg8JAIhZmVp-9" value="+ actionPerformed(ActionEvent e): void&#xa;+ startSimulation():void&#xa;" style="text;align=left;verticalAlign=top;spacingLeft=4;spacingRight=4;overflow=hidden;rotatable=0;points=[[0,0.5],[1,0.5]];portConstraint=eastwest;" parent="pZB_Ydj8sKg8JAIhZmVp-6" vertex="1">
          <mxGeometry y="130" width="310" height="80" as="geometry" />
        </mxCell>
        <mxCell id="pZB_Ydj8sKg8JAIhZmVp-10" value="View" style="swimlane;fontStyle=2;align=center;verticalAlign=top;childLayout=stackLayout;horizontal=1;startSize=26;horizontalStack=0;resizeParent=1;resizeLast=0;collapsible=1;marginBottom=0;rounded=0;shadow=0;strokeWidth=1;" parent="WIyWlLk6GJQsqaUBKTNV-1" vertex="1">
          <mxGeometry x="-500" y="920" width="310" height="210" as="geometry">
            <mxRectangle x="230" y="140" width="160" height="26" as="alternateBounds" />
          </mxGeometry>
        </mxCell>
        <mxCell id="pZB_Ydj8sKg8JAIhZmVp-11" value="-mainPanel:JPanel&#xa;-secPanel:JPanel&#xa;-dataPanel:JPanel" style="text;align=left;verticalAlign=top;spacingLeft=4;spacingRight=4;overflow=hidden;rotatable=0;points=[[0,0.5],[1,0.5]];portConstraint=eastwest;" parent="pZB_Ydj8sKg8JAIhZmVp-10" vertex="1">
          <mxGeometry y="26" width="310" height="94" as="geometry" />
        </mxCell>
        <mxCell id="pZB_Ydj8sKg8JAIhZmVp-12" value="" style="line;html=1;strokeWidth=1;align=left;verticalAlign=middle;spacingTop=-1;spacingLeft=3;spacingRight=3;rotatable=0;labelPosition=right;points=[];portConstraint=eastwest;" parent="pZB_Ydj8sKg8JAIhZmVp-10" vertex="1">
          <mxGeometry y="120" width="310" height="10" as="geometry" />
        </mxCell>
        <mxCell id="pZB_Ydj8sKg8JAIhZmVp-13" value="+ getTextField_pt_fiecare_data(): JTextField&#xa;+ getDataTabel(): JTable&#xa;+ appendToTextField(String: m): void" style="text;align=left;verticalAlign=top;spacingLeft=4;spacingRight=4;overflow=hidden;rotatable=0;points=[[0,0.5],[1,0.5]];portConstraint=eastwest;" parent="pZB_Ydj8sKg8JAIhZmVp-10" vertex="1">
          <mxGeometry y="130" width="310" height="80" as="geometry" />
        </mxCell>
        <mxCell id="pZB_Ydj8sKg8JAIhZmVp-16" value="" style="endArrow=block;dashed=1;html=1;dashPattern=1 3;strokeWidth=2;rounded=0;exitX=0.386;exitY=-0.017;exitDx=0;exitDy=0;exitPerimeter=0;endFill=0;endSize=10;" parent="WIyWlLk6GJQsqaUBKTNV-1" source="Vkex9OeiXIQ4qIdjyiqi-1" target="Vkex9OeiXIQ4qIdjyiqi-5" edge="1">
          <mxGeometry width="50" height="50" relative="1" as="geometry">
            <mxPoint x="430" y="640" as="sourcePoint" />
            <mxPoint x="480" y="590" as="targetPoint" />
          </mxGeometry>
        </mxCell>
        <mxCell id="pZB_Ydj8sKg8JAIhZmVp-19" value="" style="endArrow=classic;html=1;rounded=0;" parent="WIyWlLk6GJQsqaUBKTNV-1" source="zkfFHV4jXpPFQw0GAbJ--0" target="Vkex9OeiXIQ4qIdjyiqi-9" edge="1">
          <mxGeometry width="50" height="50" relative="1" as="geometry">
            <mxPoint x="440" y="250" as="sourcePoint" />
            <mxPoint x="490" y="200" as="targetPoint" />
            <Array as="points">
              <mxPoint x="480" y="230" />
            </Array>
          </mxGeometry>
        </mxCell>
        <mxCell id="pZB_Ydj8sKg8JAIhZmVp-23" value="" style="endArrow=block;dashed=1;html=1;dashPattern=1 3;strokeWidth=2;rounded=0;exitX=0.721;exitY=0.033;exitDx=0;exitDy=0;exitPerimeter=0;endFill=0;endSize=10;" parent="WIyWlLk6GJQsqaUBKTNV-1" source="Vkex9OeiXIQ4qIdjyiqi-15" target="Vkex9OeiXIQ4qIdjyiqi-5" edge="1">
          <mxGeometry width="50" height="50" relative="1" as="geometry">
            <mxPoint x="270" y="620" as="sourcePoint" />
            <mxPoint x="320" y="570" as="targetPoint" />
          </mxGeometry>
        </mxCell>
        <mxCell id="pZB_Ydj8sKg8JAIhZmVp-24" value="" style="endArrow=classic;html=1;rounded=0;" parent="WIyWlLk6GJQsqaUBKTNV-1" source="Vkex9OeiXIQ4qIdjyiqi-9" target="Vkex9OeiXIQ4qIdjyiqi-5" edge="1">
          <mxGeometry width="50" height="50" relative="1" as="geometry">
            <mxPoint x="620" y="460" as="sourcePoint" />
            <mxPoint x="670" y="410" as="targetPoint" />
          </mxGeometry>
        </mxCell>
        <mxCell id="pZB_Ydj8sKg8JAIhZmVp-25" value="" style="endArrow=diamond;html=1;rounded=0;endFill=0;endSize=15;" parent="WIyWlLk6GJQsqaUBKTNV-1" source="Vkex9OeiXIQ4qIdjyiqi-19" target="Vkex9OeiXIQ4qIdjyiqi-23" edge="1">
          <mxGeometry width="50" height="50" relative="1" as="geometry">
            <mxPoint x="1000" y="520" as="sourcePoint" />
            <mxPoint x="1050" y="470" as="targetPoint" />
          </mxGeometry>
        </mxCell>
        <mxCell id="pZB_Ydj8sKg8JAIhZmVp-27" value="" style="endArrow=none;dashed=1;html=1;dashPattern=1 3;strokeWidth=2;rounded=0;" parent="WIyWlLk6GJQsqaUBKTNV-1" source="pZB_Ydj8sKg8JAIhZmVp-0" target="zkfFHV4jXpPFQw0GAbJ--0" edge="1">
          <mxGeometry width="50" height="50" relative="1" as="geometry">
            <mxPoint x="120" y="460" as="sourcePoint" />
            <mxPoint x="170" y="410" as="targetPoint" />
          </mxGeometry>
        </mxCell>
        <mxCell id="pZB_Ydj8sKg8JAIhZmVp-29" value="" style="endArrow=diamondThin;html=1;rounded=0;endFill=0;startArrow=none;startFill=0;endSize=15;startSize=15;" parent="WIyWlLk6GJQsqaUBKTNV-1" source="pZB_Ydj8sKg8JAIhZmVp-6" target="pZB_Ydj8sKg8JAIhZmVp-10" edge="1">
          <mxGeometry width="50" height="50" relative="1" as="geometry">
            <mxPoint x="750" y="920" as="sourcePoint" />
            <mxPoint x="800" y="870" as="targetPoint" />
          </mxGeometry>
        </mxCell>
        <mxCell id="pZB_Ydj8sKg8JAIhZmVp-30" value="" style="endArrow=diamondThin;html=1;rounded=0;endFill=0;endSize=15;" parent="WIyWlLk6GJQsqaUBKTNV-1" source="pZB_Ydj8sKg8JAIhZmVp-10" target="zkfFHV4jXpPFQw0GAbJ--0" edge="1">
          <mxGeometry width="50" height="50" relative="1" as="geometry">
            <mxPoint x="-10" y="640" as="sourcePoint" />
            <mxPoint x="40" y="590" as="targetPoint" />
          </mxGeometry>
        </mxCell>
        <mxCell id="pZB_Ydj8sKg8JAIhZmVp-32" value="" style="endArrow=none;dashed=1;html=1;dashPattern=1 3;strokeWidth=2;rounded=0;" parent="WIyWlLk6GJQsqaUBKTNV-1" source="zkfFHV4jXpPFQw0GAbJ--0" target="Vkex9OeiXIQ4qIdjyiqi-19" edge="1">
          <mxGeometry width="50" height="50" relative="1" as="geometry">
            <mxPoint x="440" y="370" as="sourcePoint" />
            <mxPoint x="490" y="320" as="targetPoint" />
          </mxGeometry>
        </mxCell>
        <mxCell id="pZB_Ydj8sKg8JAIhZmVp-33" value="" style="endArrow=none;dashed=1;html=1;dashPattern=1 3;strokeWidth=2;rounded=0;" parent="WIyWlLk6GJQsqaUBKTNV-1" source="pZB_Ydj8sKg8JAIhZmVp-6" target="zkfFHV4jXpPFQw0GAbJ--0" edge="1">
          <mxGeometry width="50" height="50" relative="1" as="geometry">
            <mxPoint x="170" y="550" as="sourcePoint" />
            <mxPoint x="220" y="500" as="targetPoint" />
          </mxGeometry>
        </mxCell>
        <mxCell id="pZB_Ydj8sKg8JAIhZmVp-34" value="" style="endArrow=diamondThin;html=1;rounded=0;endFill=0;endSize=15;sourcePerimeterSpacing=1;" parent="WIyWlLk6GJQsqaUBKTNV-1" source="Vkex9OeiXIQ4qIdjyiqi-23" target="Vkex9OeiXIQ4qIdjyiqi-9" edge="1">
          <mxGeometry width="50" height="50" relative="1" as="geometry">
            <mxPoint x="900" y="450" as="sourcePoint" />
            <mxPoint x="850" y="500" as="targetPoint" />
          </mxGeometry>
        </mxCell>
      </root>
    </mxGraphModel>
  </diagram>
</mxfile>
